# 3ds Max Wavefront OBJ Exporter v0.97b - (c)2007 guruware
# File Created: 09.05.2019 15:07:11

mtllib wall 02.mtl

#
# object Object005
#

v  1054.4196 -676.4722 1378.5754
v  1048.2994 -671.7001 1378.6891
v  1056.2808 -683.7075 900.9433
v  1062.4009 -688.4799 900.8298
v  1048.0887 -683.7073 317.4558
v  1054.2089 -688.4794 317.3422
v  1039.8967 -673.5558 -118.2192
v  1046.0170 -678.3279 -118.3327
v  1042.1792 -666.9275 1378.8030
v  1050.1606 -678.9352 901.0571
v  1041.9685 -678.9348 317.5696
v  1033.7766 -668.7835 -118.1053
v  1036.0591 -662.1550 1378.9167
v  1044.0403 -674.1627 901.1708
v  1035.8483 -674.1622 317.6833
v  1027.6565 -664.0110 -117.9915
v  1165.1202 -499.5307 1479.4038
v  1156.9282 -499.5307 899.3094
v  1150.8081 -494.7582 899.4231
v  1159.0000 -494.7584 1479.5175
v  1148.7365 -499.5306 315.8219
v  1142.6162 -494.7581 315.9356
v  1140.5446 -499.5303 -256.5818
v  1134.4243 -494.7579 -256.4681
v  1144.6880 -489.9859 899.5368
v  1152.8798 -489.9858 1479.6312
v  1136.4960 -489.9856 316.0493
v  1128.3042 -489.9855 -256.3545
v  1138.5676 -485.2134 899.6506
v  1146.7595 -485.2135 1479.7449
v  1130.3757 -485.2132 316.1630
v  1122.1838 -485.2131 -256.2408
# 32 vertices

vn -0.6593 -0.7518 0.0129
vn -0.6593 -0.7518 0.0117
vn -0.6595 -0.7517 -0.0081
vn -0.6595 -0.7517 -0.0078
vn -0.6595 -0.7513 -0.0269
vn -0.6593 -0.7517 0.0129
vn -0.6595 -0.7516 -0.0081
vn -0.6593 -0.7518 0.0118
vn -0.6595 -0.7516 -0.0084
vn 0.6593 0.7518 -0.0108
vn 0.6593 0.7518 -0.0107
vn 0.6593 0.7518 -0.0110
vn 0.8947 -0.4459 0.0279
vn 0.9134 -0.4060 0.0295
vn 0.9046 -0.4262 0.0068
vn 0.8765 -0.4812 -0.0143
vn 0.9099 -0.4142 -0.0229
vn 0.9136 -0.4063 -0.0150
vn 0.8962 -0.4408 -0.0503
vn 0.9064 -0.4213 -0.0304
vn -0.1926 -0.2030 -0.9602
vn -0.9070 0.4199 0.0313
vn -0.9132 0.4063 0.0314
vn -0.9102 0.4135 0.0225
vn -0.9015 0.4325 0.0151
vn -0.9041 0.4274 -0.0064
vn -0.9136 0.4063 0.0148
vn -0.8653 0.4953 -0.0780
vn -0.8933 0.4487 -0.0283
vn -0.1174 -0.1508 0.9815
# 30 vertex normals

vt 1.0000 0.0000 0.0000
vt 1.0000 0.3333 0.0000
vt 0.6667 0.3333 0.0000
vt 0.6667 0.0000 0.0000
vt 0.3333 0.3333 0.0000
vt 0.3333 0.0000 0.0000
vt -0.0000 0.3333 0.0000
vt -0.0000 0.0000 0.0000
vt 1.0000 0.6667 0.0000
vt 0.6667 0.6667 0.0000
vt 0.3333 0.6667 0.0000
vt -0.0000 0.6667 0.0000
vt 1.0000 1.0000 0.0000
vt 0.6667 1.0000 0.0000
vt 0.3333 1.0000 0.0000
vt -0.0000 1.0000 0.0000
vt 0.0000 0.0000 0.0000
vt 0.0000 0.3333 0.0000
vt 0.0000 0.6667 0.0000
vt 0.0000 1.0000 0.0000
# 20 texture coords

g Object005
usemtl 01___Default
s 2
f 1/1/1 2/2/1 3/3/2 4/4/2 
f 4/4/2 3/3/2 5/5/3 6/6/4 
f 6/6/4 5/5/3 7/7/5 8/8/5 
f 2/2/1 9/9/6 10/10/2 3/3/2 
f 3/3/2 10/10/2 11/11/7 5/5/3 
f 5/5/3 11/11/7 12/12/5 7/7/5 
f 9/9/6 13/13/1 14/14/8 10/10/2 
f 10/10/2 14/14/8 15/15/9 11/11/7 
f 11/11/7 15/15/9 16/16/5 12/12/5 
s 4
f 17/17/10 18/6/11 19/5/11 20/18/10 
f 18/6/11 21/4/10 22/3/10 19/5/11 
f 21/4/10 23/1/12 24/2/12 22/3/10 
f 20/18/10 19/5/11 25/11/11 26/19/10 
f 19/5/11 22/3/10 27/10/10 25/11/11 
f 22/3/10 24/2/12 28/9/12 27/10/10 
f 26/19/10 25/11/11 29/15/11 30/20/10 
f 25/11/11 27/10/10 31/14/10 29/15/11 
f 27/10/10 28/9/12 32/13/12 31/14/10 
s 8
f 1/17/13 4/6/14 18/15/15 17/20/16 
f 4/6/14 6/4/17 21/14/18 18/15/15 
f 6/4/17 8/1/19 23/13/20 21/14/18 
s 16
f 8/17/21 7/6/21 24/15/21 23/20/21 
f 7/6/21 12/4/21 28/14/21 24/15/21 
f 12/4/21 16/1/21 32/13/21 28/14/21 
s 32
f 16/17/22 15/6/23 31/15/24 32/20/25 
f 15/6/23 14/4/26 29/14/27 31/15/24 
f 14/4/26 13/1/28 30/13/29 29/14/27 
s 64
f 13/17/30 9/6/30 26/15/30 30/20/30 
f 9/6/30 2/4/30 20/14/30 26/15/30 
f 2/4/30 1/1/30 17/13/30 20/14/30 
# 30 polygons

