# 3ds Max Wavefront OBJ Exporter v0.97b - (c)2007 guruware
# File Created: 09.05.2019 15:25:23

mtllib PLATE.mtl

#
# object Box001
#

v  -65.9885 4.9904 -0.0000
v  -65.9885 12.6679 0.0000
v  -60.2966 12.6679 0.0000
v  -60.2966 4.9904 -0.0000
v  -31.4632 12.6679 0.0000
v  -31.4632 4.9904 -0.0000
v  -26.9414 12.6679 0.0000
v  -26.9414 4.9904 -0.0000
v  -69.1141 12.6769 -1.1265
v  -83.5886 12.7725 -13.1182
v  -83.3375 12.7780 -13.8148
v  -83.0864 12.7836 -14.5113
v  -71.7515 12.7836 -14.5113
v  -19.4853 12.7836 -14.5113
v  -10.2714 12.7836 -14.5113
v  -10.0118 12.7779 -13.8046
v  -9.7521 12.7723 -13.0978
v  -23.8296 12.6771 -1.1430
v  -83.0864 22.3889 -14.5113
v  -71.7515 22.3889 -14.5113
v  -19.4853 22.3889 -14.5113
v  -10.2714 22.3889 -14.5113
v  -65.9885 4.9904 35.3167
v  -60.2966 4.9904 35.3167
v  -60.2966 12.6679 35.3167
v  -65.9885 12.6679 35.3167
v  -31.4632 4.9904 35.3167
v  -31.4632 12.6679 35.3167
v  -26.9414 4.9904 35.3167
v  -26.9414 12.6679 35.3167
v  -71.7515 12.7836 49.5073
v  -83.5734 12.7724 48.1326
v  -83.0864 12.7836 49.5073
v  -83.3299 12.7780 48.8199
v  -69.1263 12.6770 36.4282
v  -19.4853 12.7836 49.5073
v  -23.8171 12.6771 36.4448
v  -10.2714 12.7836 49.5073
v  -9.7676 12.7722 48.1122
v  -10.0195 12.7779 48.8097
v  -71.7515 22.3889 49.5073
v  -83.0864 22.3889 49.5073
v  -19.4853 22.3889 49.5073
v  -10.2714 22.3889 49.5073
v  -60.2966 4.9904 5.7352
v  -67.7543 4.9904 5.7352
v  -67.7543 4.9904 1.7658
v  -31.4632 4.9904 5.7352
v  -25.1756 4.9904 1.7658
v  -25.1756 4.9904 5.7352
v  -60.2966 4.9904 30.4586
v  -67.7543 4.9904 30.4586
v  -31.4632 4.9904 30.4586
v  -25.1756 4.9904 30.4586
v  -67.7543 4.9904 33.5509
v  -25.1756 4.9904 33.5509
v  -25.1756 12.6679 1.7658
v  -25.1756 12.6679 5.7352
v  -8.9199 12.7779 -12.7127
v  -8.0877 12.7836 -12.3276
v  -8.0877 12.7836 -4.1151
v  -8.0877 22.3889 -12.3276
v  -8.0877 22.3889 -4.1151
v  -25.1756 12.6679 30.4586
v  -8.0877 12.7836 40.7010
v  -8.0877 22.3889 40.7010
v  -25.1756 12.6679 33.5509
v  -8.0877 12.7836 47.3235
v  -8.9276 12.7779 47.7178
v  -8.0877 22.3889 47.3235
v  -10.5479 24.1549 -12.8072
v  -19.4853 24.1549 -12.7453
v  -19.4853 24.1549 -4.1151
v  -9.8536 24.1549 -4.1151
v  -9.8543 24.1549 -12.7446
v  -9.7917 24.1549 -12.0511
v  -71.7515 24.1549 -12.7453
v  -71.7515 24.1549 -4.1151
v  -82.8099 24.1549 -12.8072
v  -83.5035 24.1549 -12.7446
v  -83.5661 24.1549 -12.0511
v  -83.5041 24.1549 -4.1151
v  -19.4853 24.1549 40.7010
v  -9.8536 24.1549 40.7010
v  -26.2668 19.1939 4.4549
v  -64.5409 19.1939 4.4549
v  -64.5409 19.1939 31.7389
v  -26.2668 19.1939 31.7389
v  -83.5041 24.1549 40.7010
v  -71.7515 24.1549 40.7010
v  -19.4853 24.1549 47.7413
v  -9.7917 24.1549 47.0470
v  -10.5479 24.1549 47.8032
v  -9.8543 24.1549 47.7406
v  -71.7515 24.1549 47.7413
v  -83.5661 24.1549 47.0470
v  -83.5035 24.1549 47.7406
v  -82.8099 24.1549 47.8032
v  -85.2701 22.3889 -12.3276
v  -85.2701 12.7836 -12.3276
v  -85.2701 12.7836 -4.1151
v  -85.2701 22.3889 -4.1151
v  -67.7543 12.6679 1.7658
v  -67.7543 12.6679 5.7352
v  -84.4294 12.7780 -12.7229
v  -85.2701 12.7836 40.7010
v  -85.2701 22.3889 40.7010
v  -67.7543 12.6679 30.4586
v  -85.2701 12.7836 47.3235
v  -85.2701 22.3889 47.3235
v  -67.7543 12.6679 33.5509
v  -84.4218 12.7780 47.7281
v  -66.3361 19.3735 2.6105
v  -24.4829 19.3776 2.6047
v  -66.3309 19.3688 33.5906
v  -24.4880 19.3726 33.5963
v  -24.9372 19.1939 3.1253
v  -65.8705 19.1939 3.1253
v  -65.8705 19.1939 33.0685
v  -24.9372 19.1939 33.0685
v  -83.8834 12.7780 -13.2688
v  -9.4658 12.7779 -13.2586
v  -83.8758 12.7780 48.2740
v  -9.4736 12.7779 48.2638
v  -84.6396 22.3930 -13.8808
v  -84.1783 12.7836 -13.4195
v  -9.1795 12.7836 -13.4195
v  -8.7182 22.3930 -13.8808
v  -84.1783 12.7836 48.4154
v  -84.6396 22.3930 48.8767
v  -8.7182 22.3930 48.8767
v  -9.1795 12.7836 48.4154
v  -66.1180 19.2388 2.8655
v  -24.6925 19.2398 2.8640
v  -66.1167 19.2376 33.3302
v  -24.6938 19.2386 33.3316
v  -71.7515 23.7134 -14.0698
v  -83.0173 23.7134 -14.0853
v  -19.4853 23.7134 -14.0698
v  -10.3405 23.7134 -14.0853
v  -83.0173 23.7134 49.0812
v  -71.7515 23.7134 49.0658
v  -19.4853 23.7134 49.0658
v  -10.3405 23.7134 49.0812
v  -8.5292 23.7134 -4.1151
v  -8.5137 23.7134 -12.2585
v  -8.5292 23.7134 40.7010
v  -8.5137 23.7134 47.2544
v  -84.8286 23.7134 -4.1151
v  -84.8441 23.7134 -12.2585
v  -84.8286 23.7134 40.7010
v  -84.8441 23.7134 47.2544
v  -84.3979 23.7144 -13.6391
v  -8.9599 23.7144 -13.6391
v  -84.3979 23.7144 48.6350
v  -8.9599 23.7144 48.6350
# 156 vertices

vn 0.0000 0.0000 -1.0000
vn -0.0031 -1.0000 -0.0038
vn -0.0068 -1.0000 -0.0071
vn -0.0062 -0.9999 -0.0102
vn -0.0023 -1.0000 -0.0088
vn 0.0000 -1.0000 -0.0080
vn -0.0006 -1.0000 -0.0063
vn 0.0023 -1.0000 -0.0088
vn 0.0063 -0.9999 -0.0103
vn 0.0069 -1.0000 -0.0072
vn 0.0006 -1.0000 -0.0063
vn 0.0032 -1.0000 -0.0038
vn -0.3624 -0.0327 -0.9314
vn -0.1883 0.1540 -0.9700
vn 0.0000 0.1602 -0.9871
vn -0.0004 0.1599 -0.9871
vn 0.1910 0.1312 -0.9728
vn 0.3827 0.0000 -0.9239
vn 0.0000 -0.0000 1.0000
vn -0.0006 -1.0000 0.0064
vn 0.0000 -1.0000 0.0081
vn -0.0068 -1.0000 0.0072
vn -0.0024 -1.0000 0.0090
vn -0.0063 -0.9999 0.0104
vn -0.0031 -1.0000 0.0039
vn 0.0006 -1.0000 0.0064
vn 0.0032 -1.0000 0.0039
vn 0.0024 -1.0000 0.0090
vn 0.0069 -0.9999 0.0073
vn 0.0064 -0.9999 0.0104
vn -0.3827 -0.0000 0.9239
vn 0.0003 0.1600 0.9871
vn -0.1910 0.1312 0.9728
vn 0.0000 0.1602 0.9871
vn 0.3624 -0.0327 0.9314
vn 0.1883 0.1540 0.9700
vn -0.0000 -1.0000 -0.0000
vn 0.0000 -1.0000 -0.0000
vn 1.0000 0.0000 -0.0000
vn 0.0097 -0.9999 -0.0063
vn 0.0076 -1.0000 -0.0019
vn 0.0068 -1.0000 -0.0000
vn 0.0053 -1.0000 -0.0007
vn 0.9314 -0.0327 -0.3624
vn 0.9700 0.1541 -0.1883
vn 0.9871 0.1602 0.0000
vn 0.9871 0.1598 -0.0005
vn 0.0076 -1.0000 0.0019
vn 0.0098 -0.9999 0.0064
vn 0.0053 -1.0000 0.0007
vn 0.9728 0.1312 0.1910
vn 0.9239 -0.0000 0.3827
vn 0.0069 0.9856 -0.1692
vn -0.0006 0.9871 -0.1598
vn -0.0000 1.0000 0.0000
vn 0.1601 0.9871 0.0002
vn 0.1773 0.9745 -0.1373
vn 0.1773 0.9840 -0.0173
vn 0.0001 0.9871 -0.1601
vn 0.0000 1.0000 0.0000
vn -0.0176 0.9840 -0.1771
vn -0.1373 0.9745 -0.1773
vn -0.1692 0.9856 -0.0068
vn -0.1598 0.9872 0.0006
vn 0.1597 0.9872 -0.0008
vn -0.1601 0.9871 -0.0003
vn -0.0002 0.9871 0.1601
vn 0.1692 0.9856 0.0068
vn 0.0174 0.9840 0.1772
vn 0.1373 0.9745 0.1773
vn 0.0004 0.9871 0.1599
vn -0.1774 0.9840 0.0172
vn -0.1773 0.9745 0.1373
vn -0.0069 0.9856 0.1692
vn -0.9728 0.1312 -0.1910
vn -0.9239 0.0000 -0.3827
vn -1.0000 0.0000 -0.0000
vn -0.9871 0.1599 0.0004
vn -0.0052 -1.0000 -0.0007
vn -0.0066 -1.0000 -0.0000
vn -0.0095 -0.9999 -0.0062
vn -0.0075 -1.0000 -0.0018
vn -0.9871 0.1602 0.0000
vn -0.9314 -0.0327 0.3624
vn -0.9700 0.1541 0.1882
vn -0.0052 -1.0000 0.0007
vn -0.0096 -0.9999 0.0063
vn -0.0075 -1.0000 0.0018
vn -0.3389 0.8673 0.3646
vn 0.3340 0.8742 0.3525
vn 0.3479 0.8885 0.2994
vn -0.3667 0.8805 0.3005
vn 0.3235 0.8806 -0.3462
vn 0.3475 0.8927 -0.2869
vn -0.3280 0.8744 -0.3576
vn -0.3663 0.8848 -0.2879
vn -0.0706 0.9954 0.0645
vn 0.0680 0.9957 0.0636
vn 0.0668 0.9959 -0.0614
vn -0.0693 0.9957 -0.0622
vn -0.0125 -0.9998 -0.0125
vn 0.0126 -0.9998 -0.0126
vn -0.0126 -0.9998 0.0126
vn 0.0128 -0.9998 0.0128
vn -0.7040 0.1131 -0.7011
vn -0.7216 -0.0373 -0.6913
vn 0.6913 -0.0373 -0.7216
vn 0.7011 0.1131 -0.7040
vn -0.6913 -0.0373 0.7216
vn -0.7011 0.1131 0.7040
vn 0.7040 0.1131 0.7011
vn 0.7216 -0.0373 0.6913
vn 0.2363 0.9504 0.2022
vn -0.2495 0.9470 0.2024
vn 0.2356 0.9524 -0.1933
vn -0.2486 0.9491 -0.1934
vn -0.7071 0.0000 -0.7071
vn 0.7071 0.0000 -0.7071
vn -0.7071 -0.0000 0.7071
vn 0.7071 -0.0000 0.7071
vn 0.0001 0.3158 -0.9488
vn -0.1682 0.2920 -0.9415
vn -0.0008 0.3162 -0.9487
vn 0.1477 0.3103 -0.9391
vn -0.1477 0.3102 0.9391
vn 0.0007 0.3162 0.9487
vn -0.0001 0.3157 0.9488
vn 0.1681 0.2920 0.9415
vn 0.9489 0.3157 0.0001
vn 0.9416 0.2920 -0.1680
vn 0.9487 0.3162 -0.0011
vn 0.9390 0.3105 0.1476
vn -0.3168 0.9485 0.0011
vn -0.3331 0.9420 -0.0417
vn -0.3162 0.9487 -0.0004
vn -0.3183 0.9467 0.0487
vn -0.6650 0.2703 -0.6962
vn -0.9391 0.3104 -0.1477
vn 0.6963 0.2703 -0.6650
vn -0.6962 0.2703 0.6650
vn 0.6650 0.2703 0.6962
vn -0.9416 0.2920 0.1678
vn 0.0002 0.9487 -0.3162
vn -0.0492 0.9466 -0.3185
vn -0.0010 0.9485 -0.3167
vn 0.0417 0.9420 -0.3331
vn -0.0418 0.9420 0.3331
vn 0.0008 0.9485 0.3166
vn -0.0003 0.9487 0.3162
vn 0.0490 0.9467 0.3184
vn 0.3162 0.9487 0.0003
vn 0.3184 0.9467 -0.0489
vn 0.3169 0.9485 -0.0014
vn 0.3331 0.9420 0.0416
vn -0.9487 0.3162 0.0009
vn -0.9489 0.3156 -0.0001
vn -0.2183 0.9488 -0.2284
vn 0.2284 0.9488 -0.2183
vn -0.2284 0.9488 0.2183
vn 0.2183 0.9488 0.2284
# 160 vertex normals

vt 0.9211 0.0000 0.0000
vt 0.9211 0.3333 0.0000
vt 0.6667 0.3333 0.0000
vt 0.6667 0.0000 0.0000
vt 0.3333 0.3333 0.0000
vt 0.3333 0.0000 0.0000
vt 0.0936 0.3333 0.0000
vt 0.0936 0.0000 0.0000
vt 1.0000 0.3592 0.0000
vt 1.0000 0.6347 0.0000
vt 0.9865 0.6587 0.0000
vt 0.9462 0.6667 0.0000
vt 0.6667 0.6667 0.0000
vt 0.3333 0.6667 0.0000
vt 0.0639 0.6667 0.0000
vt 0.0160 0.6585 0.0000
vt -0.0000 0.6342 0.0000
vt -0.0000 0.3596 0.0000
vt 0.9462 0.9482 0.0000
vt 0.6667 0.9482 0.0000
vt 0.3333 0.9482 0.0000
vt 0.0639 0.9482 0.0000
vt 0.0789 0.0000 0.0000
vt 0.0789 0.3333 0.0000
vt 0.9064 0.0000 0.0000
vt 0.9064 0.3333 0.0000
vt 0.0000 0.6344 0.0000
vt 0.0538 0.6667 0.0000
vt 0.0135 0.6586 0.0000
vt 0.0000 0.3594 0.0000
vt 1.0000 0.3598 0.0000
vt 0.9361 0.6667 0.0000
vt 1.0000 0.6339 0.0000
vt 0.9840 0.6585 0.0000
vt 0.0538 0.9482 0.0000
vt 0.9361 0.9482 0.0000
vt 0.0000 0.3333 0.0000
vt 0.0000 0.1026 0.0000
vt 1.0000 0.1026 0.0000
vt 1.0000 0.3333 0.0000
vt 0.0000 0.6667 0.0000
vt 1.0000 0.6667 0.0000
vt 0.3333 1.0000 0.0000
vt 0.0000 0.8788 0.0000
vt 0.0789 1.0000 0.0000
vt 0.6667 1.0000 0.0000
vt 1.0000 0.8788 0.0000
vt 0.9064 1.0000 0.0000
vt 0.3333 0.1026 0.0000
vt 0.3596 0.0000 0.0000
vt 0.6342 0.0000 0.0000
vt 0.6585 0.0175 0.0000
vt 0.6667 0.0700 0.0000
vt 0.9482 0.0700 0.0000
vt 0.9482 0.3333 0.0000
vt 0.9482 0.6667 0.0000
vt 0.3333 0.8788 0.0000
vt 0.6667 0.9173 0.0000
vt 0.6585 0.9793 0.0000
vt 0.6339 1.0000 0.0000
vt 0.3598 1.0000 0.0000
vt 0.9482 0.9173 0.0000
vt 0.0720 0.0546 0.0000
vt 0.3333 0.0566 0.0000
vt 0.0516 0.3333 0.0000
vt 0.0517 0.0566 0.0000
vt 0.0498 0.0789 0.0000
vt 0.6667 0.0566 0.0000
vt 0.9393 0.0546 0.0000
vt 0.9564 0.0566 0.0000
vt 0.9580 0.0789 0.0000
vt 0.9565 0.3333 0.0000
vt 0.0516 0.6667 0.0000
vt 0.9565 0.6667 0.0000
vt 0.3333 0.9332 0.0000
vt 0.0498 0.9069 0.0000
vt 0.0720 0.9355 0.0000
vt 0.0517 0.9331 0.0000
vt 0.6667 0.9332 0.0000
vt 0.9580 0.9069 0.0000
vt 0.9564 0.9331 0.0000
vt 0.9393 0.9355 0.0000
vt 0.0518 0.0700 0.0000
vt 0.3333 0.0700 0.0000
vt 0.0518 0.3333 0.0000
vt 0.3653 0.0000 0.0000
vt 0.6408 0.0000 0.0000
vt 0.6667 0.1026 0.0000
vt 0.3413 0.0175 0.0000
vt 0.0518 0.6667 0.0000
vt 0.3333 0.9173 0.0000
vt 0.0518 0.9173 0.0000
vt 0.6667 0.8788 0.0000
vt 0.6406 1.0000 0.0000
vt 0.3656 1.0000 0.0000
vt 0.3414 0.9793 0.0000
vt -0.0000 0.6667 0.0000
vt 0.0516 0.0216 0.0000
vt 0.0518 -0.0269 0.0000
vt 0.3333 -0.0269 0.0000
vt 0.3333 0.0216 0.0000
vt 0.6667 0.0236 0.0000
vt 0.6667 -0.0228 0.0000
vt 0.9482 -0.0228 0.0000
vt 0.9484 0.0236 0.0000
vt 0.3333 0.9699 0.0000
vt 0.3333 1.0226 0.0000
vt 0.0518 1.0226 0.0000
vt 0.0516 0.9699 0.0000
vt 0.9484 0.9672 0.0000
vt 0.9482 1.0170 0.0000
vt 0.6667 1.0170 0.0000
vt 0.6667 0.9672 0.0000
vt 0.3315 0.0130 0.0000
vt 0.3261 -0.0180 0.0000
vt 0.0111 0.6766 0.0000
vt -0.0195 0.7066 0.0000
vt 0.0058 0.6815 0.0000
vt -0.0307 0.7260 0.0000
vt 0.6699 0.9812 0.0000
vt 0.6795 1.0076 0.0000
vt 0.6980 0.0530 0.0000
vt 0.0630 0.3092 0.0000
vt 0.0697 0.3148 0.0000
vt 0.2999 0.9331 0.0000
vt 1.0000 -0.0178 0.0000
vt 0.6667 -0.0178 0.0000
vt 0.3333 -0.0102 0.0000
vt 0.0000 -0.0102 0.0000
vt 0.6667 1.0126 0.0000
vt 1.0000 1.0126 0.0000
vt -0.0000 1.0033 0.0000
vt 0.3333 1.0033 0.0000
vt 0.6534 0.0236 0.0000
vt 0.6402 -0.0095 0.0000
vt 0.9184 -0.0321 0.0000
vt 0.9289 0.0113 0.0000
vt 0.3333 0.0466 0.0000
vt 0.3333 0.0365 0.0000
vt 0.6667 0.0365 0.0000
vt 0.6667 0.0466 0.0000
vt 0.0835 0.0089 0.0000
vt 0.0951 -0.0368 0.0000
vt 0.3602 -0.0177 0.0000
vt 0.3468 0.0195 0.0000
vt 0.9277 0.9840 0.0000
vt 0.9160 1.0325 0.0000
vt 0.6365 1.0062 0.0000
vt 0.6516 0.9697 0.0000
vt 0.6667 0.9478 0.0000
vt 0.6667 0.9625 0.0000
vt 0.3333 0.9625 0.0000
vt 0.3333 0.9478 0.0000
vt 0.3495 0.9742 0.0000
vt 0.3656 1.0153 0.0000
vt 0.0983 1.0384 0.0000
vt 0.0851 0.9870 0.0000
vt 0.0147 0.3448 0.0000
vt -0.0223 0.3562 0.0000
vt -0.0372 0.1009 0.0000
vt 0.0063 0.0899 0.0000
vt 0.0424 0.6667 0.0000
vt 0.0332 0.6667 0.0000
vt 0.0332 0.3333 0.0000
vt 0.0424 0.3333 0.0000
vt 0.0052 0.8950 0.0000
vt -0.0394 0.8832 0.0000
vt -0.0275 0.6449 0.0000
vt 0.0121 0.6558 0.0000
vt 0.0061 0.3397 0.0000
vt -0.0396 0.3462 0.0000
vt -0.0584 -0.0160 0.0000
vt -0.0033 0.0270 0.0000
vt 0.0391 0.6667 0.0000
vt 0.0264 0.6667 0.0000
vt 0.0264 0.3333 0.0000
vt 0.0391 0.3333 0.0000
vt -0.0556 0.9817 0.0000
vt -0.1630 1.0460 0.0000
vt -0.0617 0.6477 0.0000
vt -0.0049 0.6572 0.0000
vt 1.0007 0.0355 0.0000
vt 1.0450 0.0144 0.0000
vt 1.0578 0.0671 0.0000
vt 1.0079 0.0730 0.0000
vt 0.0315 0.0114 0.0000
vt 0.0114 -0.0339 0.0000
vt 0.0595 -0.0502 0.0000
vt 0.0657 0.0022 0.0000
vt 0.9744 0.9768 0.0000
vt 0.9923 1.0205 0.0000
vt 0.9518 1.0395 0.0000
vt 0.9456 0.9875 0.0000
vt -0.0007 0.9581 0.0000
vt -0.0530 0.9831 0.0000
vt -0.0682 0.9208 0.0000
vt -0.0092 0.9138 0.0000
vt 0.9451 0.0068 0.0000
vt 0.9508 -0.0410 0.0000
vt 0.9913 -0.0248 0.0000
vt 0.9739 0.0159 0.0000
vt -0.0034 0.0726 0.0000
vt -0.0566 0.0663 0.0000
vt -0.0416 0.0136 0.0000
vt 0.0050 0.0351 0.0000
vt 1.0137 0.9134 0.0000
vt 1.0694 0.9200 0.0000
vt 1.0565 0.9822 0.0000
vt 1.0065 0.9577 0.0000
vt 0.0652 0.9921 0.0000
vt 0.0584 1.0487 0.0000
vt 0.0104 1.0296 0.0000
vt 0.0310 0.9813 0.0000
# 213 texture coords

g Box001
usemtl 01___Default
s 1
f 1/1/1 2/2/1 3/3/1 4/4/1 
f 4/4/1 3/3/1 5/5/1 6/6/1 
f 6/6/1 5/5/1 7/7/1 8/8/1 
s 2
f 9/9/2 10/10/3 11/11/4 12/12/5 
f 9/9/2 12/12/5 13/13/6 3/3/6 
f 2/2/7 9/9/2 3/3/6 
f 3/3/6 13/13/6 14/14/6 5/5/6 
f 14/14/6 15/15/8 16/16/9 17/17/10 
f 5/5/6 14/14/6 17/17/10 7/7/11 
f 17/17/10 18/18/12 7/7/11 
s 1
f 12/12/13 19/19/14 20/20/15 13/13/1 
f 13/13/1 20/20/15 21/21/16 14/14/1 
f 14/14/1 21/21/16 22/22/17 15/15/18 
f 23/23/19 24/6/19 25/5/19 26/24/19 
f 24/6/19 27/4/19 28/3/19 25/5/19 
f 27/4/19 29/25/19 30/26/19 28/3/19 
s 2
f 26/24/20 25/5/21 31/14/21 32/27/22 
f 31/14/21 33/28/23 34/29/24 32/27/22 
f 35/30/25 26/24/20 32/27/22 
f 25/5/21 28/3/21 36/13/21 31/14/21 
f 28/3/21 30/26/26 37/31/27 38/32/28 
f 37/31/27 39/33/29 40/34/30 38/32/28 
f 28/3/21 38/32/28 36/13/21 
s 1
f 33/28/31 31/14/19 41/21/32 42/35/33 
f 31/14/19 36/13/19 43/20/34 41/21/32 
f 36/13/19 38/32/35 44/36/36 43/20/34 
s 2
f 1/23/37 4/6/38 45/5/38 46/37/37 
f 47/38/37 1/23/37 46/37/37 
f 4/6/38 6/4/38 48/3/38 45/5/38 
f 6/4/38 8/25/38 49/39/38 50/40/38 
f 6/4/38 50/40/38 48/3/38 
f 46/37/37 45/5/38 51/14/38 52/41/38 
f 45/5/38 48/3/38 53/13/38 51/14/38 
f 48/3/38 50/40/38 54/42/37 53/13/38 
f 52/41/38 51/14/38 24/43/38 55/44/38 
f 24/43/38 23/45/38 55/44/38 
f 51/14/38 53/13/38 27/46/38 24/43/38 
f 54/42/37 56/47/37 29/48/37 53/13/38 
f 53/13/38 29/48/37 27/46/38 
s 1
f 49/38/39 57/49/39 58/5/39 50/37/39 
s 2
f 18/50/12 17/51/10 59/52/40 60/53/41 
f 18/50/12 60/53/41 61/3/42 58/5/42 
f 57/49/43 18/50/12 58/5/42 
s 1
f 60/53/44 62/54/45 63/55/46 61/3/39 
f 50/37/39 58/5/39 64/14/39 54/41/39 
s 2
f 58/5/42 61/3/42 65/13/42 64/14/42 
s 1
f 61/3/39 63/55/46 66/56/47 65/13/39 
f 54/41/39 64/14/39 67/57/39 56/44/39 
s 2
f 65/13/42 68/58/48 69/59/49 39/60/29 
f 64/14/42 65/13/42 39/60/29 67/57/50 
f 39/60/29 37/61/27 67/57/50 
s 1
f 65/13/39 66/56/47 70/62/51 68/58/52 
s 2
f 71/63/53 72/64/54 73/5/55 74/65/56 
f 75/66/57 71/63/53 74/65/56 76/67/58 
f 72/64/54 77/68/59 78/3/60 73/5/55 
f 77/68/59 79/69/61 80/70/62 81/71/63 
f 77/68/59 81/71/63 82/72/64 78/3/60 
f 74/65/56 73/5/55 83/14/60 84/73/65 
s 1
f 85/5/55 86/3/60 87/13/55 88/14/60 
s 2
f 78/3/60 82/72/64 89/74/66 90/13/60 
f 84/73/65 83/14/60 91/75/67 92/76/68 
f 91/75/67 93/77/69 94/78/70 92/76/68 
f 83/14/60 90/13/60 95/79/71 91/75/67 
f 89/74/66 96/80/72 97/81/73 98/82/74 
f 90/13/60 89/74/66 98/82/74 95/79/71 
s 1
f 99/83/75 100/84/76 101/5/77 102/85/78 
s 2
f 10/86/3 9/87/2 103/88/79 104/3/80 
f 10/86/3 104/3/80 101/5/80 105/89/81 
f 100/84/82 105/89/81 101/5/80 
s 1
f 103/88/77 47/39/77 46/40/77 104/3/77 
f 102/85/78 101/5/77 106/14/77 107/90/83 
s 2
f 101/5/80 104/3/80 108/13/80 106/14/80 
s 1
f 104/3/77 46/40/77 52/42/77 108/13/77 
f 107/90/83 106/14/77 109/91/84 110/92/85 
s 2
f 108/13/80 111/93/86 35/94/25 106/14/80 
f 35/94/25 32/95/22 112/96/87 109/91/88 
f 106/14/80 35/94/25 109/91/88 
s 1
f 108/13/77 52/42/77 55/47/77 111/93/77 
f 73/5/89 78/3/90 113/3/91 114/5/92 
f 78/3/90 90/13/93 115/13/94 113/3/91 
f 90/13/93 83/14/95 116/14/96 115/13/94 
f 83/14/95 73/5/89 114/5/92 116/14/96 
f 117/5/97 118/3/98 86/3/60 85/5/55 
f 118/3/98 119/13/99 87/13/55 86/3/60 
f 119/13/99 120/14/100 88/14/60 87/13/55 
f 120/14/100 117/5/97 85/5/55 88/14/60 
s 2
f 10/86/3 121/6/101 11/6/4 
f 17/17/10 122/97/102 59/97/40 
f 32/27/22 123/41/103 112/41/87 
f 39/60/29 124/46/104 40/46/30 
s 1
f 125/98/105 19/99/14 12/100/13 126/101/106 
f 127/102/107 15/103/18 22/104/17 128/105/108 
f 129/106/109 33/107/31 42/108/33 130/109/110 
f 131/110/111 44/111/36 38/112/35 132/113/112 
s 2
f 10/86/3 105/89/81 121/6/101 
f 126/114/101 121/6/101 105/89/81 100/84/82 
f 12/115/5 11/6/4 121/6/101 126/114/101 
f 17/17/10 16/16/9 122/97/102 
f 127/116/102 122/97/102 16/16/9 15/15/8 
f 60/117/41 59/97/40 122/97/102 127/116/102 
f 32/27/22 34/29/24 123/41/103 
f 129/118/103 123/41/103 34/29/24 33/28/23 
f 109/119/88 112/41/87 123/41/103 129/118/103 
f 39/60/29 69/59/49 124/46/104 
f 132/120/104 124/46/104 69/59/49 68/58/48 
f 38/121/28 40/46/30 124/46/104 132/120/104 
s 1
f 99/83/75 125/98/105 126/101/106 100/84/76 
f 60/53/44 127/102/107 128/105/108 62/54/45 
f 109/91/84 129/106/109 130/109/110 110/92/85 
f 70/62/51 131/110/111 132/113/112 68/58/52 
f 133/3/113 118/3/98 117/5/97 134/5/114 
f 135/13/115 119/13/99 118/3/98 133/3/113 
f 136/14/116 120/14/100 119/13/99 135/13/115 
f 134/5/114 117/5/97 120/14/100 136/14/116 
f 113/3/91 133/3/113 134/5/114 114/5/92 
f 115/13/94 135/13/115 133/3/113 113/3/91 
f 116/14/96 136/14/116 135/13/115 115/13/94 
f 114/5/92 134/5/114 136/14/116 116/14/96 
s 2
f 103/88/79 9/87/2 2/122/7 
f 7/7/11 18/18/12 57/123/43 
f 26/24/20 35/30/25 111/124/86 
f 67/57/50 37/61/27 30/125/26 
s 4
f 1/126/117 47/39/117 103/88/117 2/127/117 
f 7/128/118 57/49/118 49/38/118 8/129/118 
f 26/130/119 111/93/119 55/47/119 23/131/119 
f 29/132/120 56/44/120 67/57/120 30/133/120 
s 1
f 137/134/121 20/135/15 19/136/14 138/137/122 
f 139/138/123 21/139/16 20/140/15 137/141/121 
f 140/142/124 22/143/17 21/144/16 139/145/123 
f 141/146/125 42/147/33 41/148/32 142/149/126 
f 142/150/126 41/151/32 43/152/34 143/153/127 
f 143/154/127 43/155/34 44/156/36 144/157/128 
f 145/158/129 63/159/46 62/160/45 146/161/130 
f 147/162/131 66/163/47 63/164/46 145/165/129 
f 148/166/132 70/167/51 66/168/47 147/169/131 
s 2
f 149/170/133 82/171/64 81/172/63 150/173/134 
f 151/174/135 89/175/66 82/176/64 149/177/133 
f 152/178/136 96/179/72 89/180/66 151/181/135 
s 1
f 153/182/137 125/183/105 99/184/75 150/185/138 
f 154/186/139 128/187/108 22/188/17 140/189/124 
f 155/190/140 130/191/110 42/192/33 141/193/125 
f 156/194/141 131/195/111 70/196/51 148/197/132 
f 138/198/122 19/199/14 125/200/105 153/201/137 
f 146/202/130 62/203/45 128/204/108 154/205/139 
f 152/206/142 110/207/85 130/208/110 155/209/140 
f 144/210/128 44/211/36 131/212/111 156/213/141 
s 2
f 77/68/59 137/134/143 138/137/144 79/69/61 
f 72/64/54 139/138/145 137/141/143 77/68/59 
f 71/63/53 140/142/146 139/145/145 72/64/54 
f 98/82/74 141/146/147 142/149/148 95/79/71 
f 95/79/71 142/150/148 143/153/149 91/75/67 
f 91/75/67 143/154/149 144/157/150 93/77/69 
f 74/65/56 145/158/151 146/161/152 76/67/58 
f 84/73/65 147/162/153 145/165/151 74/65/56 
f 92/76/68 148/166/154 147/169/153 84/73/65 
s 1
f 102/85/78 149/170/155 150/173/138 99/83/75 
f 107/90/83 151/174/156 149/177/155 102/85/78 
f 110/92/85 152/178/142 151/181/156 107/90/83 
s 2
f 80/70/62 153/182/157 150/185/134 81/71/63 
f 75/66/57 154/186/158 140/189/146 71/63/53 
f 97/81/73 155/190/159 141/193/147 98/82/74 
f 94/78/70 156/194/160 148/197/154 92/76/68 
f 79/69/61 138/198/144 153/201/157 80/70/62 
f 76/67/58 146/202/152 154/205/158 75/66/57 
f 96/80/72 152/206/136 155/209/159 97/81/73 
f 93/77/69 144/210/150 156/213/160 94/78/70 
# 142 polygons - 24 triangles

